<svg width="13" height="22" viewBox="0 0 13 22" fill="none" xmlns="http://www.w3.org/2000/svg">
<path fill-rule="evenodd" clip-rule="evenodd" d="M1.05697 21.276C0.807007 21.026 0.666586 20.6869 0.666586 20.3333C0.666586 19.9798 0.807007 19.6407 1.05697 19.3907L9.44764 11L1.05697 2.60933C0.814092 2.35786 0.6797 2.02106 0.682738 1.67146C0.685776 1.32187 0.826001 0.987451 1.07321 0.740241C1.32042 0.49303 1.65484 0.352803 2.00444 0.349765C2.35403 0.346728 2.69083 0.48112 2.9423 0.723998L12.2756 10.0573C12.5256 10.3074 12.666 10.6464 12.666 11C12.666 11.3536 12.5256 11.6926 12.2756 11.9427L2.9423 21.276C2.69226 21.526 2.35319 21.6664 1.99963 21.6664C1.64608 21.6664 1.307 21.526 1.05697 21.276Z" fill="white"/>
</svg>
